<mxfile host="Electron" modified="2024-02-06T11:10:28.841Z" agent="Mozilla/5.0 (X11; Linux x86_64) AppleWebKit/537.36 (KHTML, like Gecko) draw.io/23.0.2 Chrome/120.0.6099.109 Electron/28.1.0 Safari/537.36" etag="qXCVdUQ_81rhyU1CEnjf" version="23.0.2" type="device">
  <diagram name="Page-1" id="lHj3bI_iQbI7rj4tgBBz">
    <mxGraphModel dx="1372" dy="838" grid="1" gridSize="10" guides="1" tooltips="1" connect="1" arrows="1" fold="1" page="1" pageScale="1" pageWidth="850" pageHeight="1100" math="0" shadow="0">
      <root>
        <mxCell id="0" />
        <mxCell id="1" parent="0" />
        <mxCell id="Z_HHgX4n72WDITorGtu6-14" style="edgeStyle=orthogonalEdgeStyle;rounded=0;orthogonalLoop=1;jettySize=auto;html=1;entryX=0.5;entryY=0;entryDx=0;entryDy=0;" edge="1" parent="1" source="Z_HHgX4n72WDITorGtu6-2" target="Z_HHgX4n72WDITorGtu6-4">
          <mxGeometry relative="1" as="geometry" />
        </mxCell>
        <mxCell id="Z_HHgX4n72WDITorGtu6-2" value="password_recovery&lt;br&gt;called" style="rounded=0;whiteSpace=wrap;html=1;" vertex="1" parent="1">
          <mxGeometry x="365" y="20" width="120" height="60" as="geometry" />
        </mxCell>
        <mxCell id="Z_HHgX4n72WDITorGtu6-9" style="edgeStyle=orthogonalEdgeStyle;rounded=0;orthogonalLoop=1;jettySize=auto;html=1;entryX=1;entryY=0.5;entryDx=0;entryDy=0;" edge="1" parent="1" source="Z_HHgX4n72WDITorGtu6-4" target="Z_HHgX4n72WDITorGtu6-7">
          <mxGeometry relative="1" as="geometry" />
        </mxCell>
        <mxCell id="Z_HHgX4n72WDITorGtu6-13" style="edgeStyle=orthogonalEdgeStyle;rounded=0;orthogonalLoop=1;jettySize=auto;html=1;entryX=0.5;entryY=0;entryDx=0;entryDy=0;" edge="1" parent="1" source="Z_HHgX4n72WDITorGtu6-4" target="Z_HHgX4n72WDITorGtu6-5">
          <mxGeometry relative="1" as="geometry" />
        </mxCell>
        <mxCell id="Z_HHgX4n72WDITorGtu6-4" value="is 2fa&lt;br&gt;active?" style="rhombus;whiteSpace=wrap;html=1;" vertex="1" parent="1">
          <mxGeometry x="385" y="120" width="80" height="80" as="geometry" />
        </mxCell>
        <mxCell id="Z_HHgX4n72WDITorGtu6-12" style="edgeStyle=orthogonalEdgeStyle;rounded=0;orthogonalLoop=1;jettySize=auto;html=1;entryX=0.5;entryY=0;entryDx=0;entryDy=0;" edge="1" parent="1" source="Z_HHgX4n72WDITorGtu6-5" target="Z_HHgX4n72WDITorGtu6-6">
          <mxGeometry relative="1" as="geometry" />
        </mxCell>
        <mxCell id="Z_HHgX4n72WDITorGtu6-5" value="no, return token&lt;br&gt;to reset password" style="rounded=0;whiteSpace=wrap;html=1;" vertex="1" parent="1">
          <mxGeometry x="365" y="270" width="120" height="60" as="geometry" />
        </mxCell>
        <mxCell id="Z_HHgX4n72WDITorGtu6-18" style="edgeStyle=orthogonalEdgeStyle;rounded=0;orthogonalLoop=1;jettySize=auto;html=1;entryX=0.5;entryY=0;entryDx=0;entryDy=0;dashed=1;" edge="1" parent="1" source="Z_HHgX4n72WDITorGtu6-6" target="Z_HHgX4n72WDITorGtu6-15">
          <mxGeometry relative="1" as="geometry" />
        </mxCell>
        <mxCell id="Z_HHgX4n72WDITorGtu6-6" value="token is sent&lt;br&gt;to the user email" style="rounded=0;whiteSpace=wrap;html=1;" vertex="1" parent="1">
          <mxGeometry x="365" y="420" width="120" height="60" as="geometry" />
        </mxCell>
        <mxCell id="Z_HHgX4n72WDITorGtu6-10" style="edgeStyle=orthogonalEdgeStyle;rounded=0;orthogonalLoop=1;jettySize=auto;html=1;entryX=0.5;entryY=0;entryDx=0;entryDy=0;" edge="1" parent="1" source="Z_HHgX4n72WDITorGtu6-7" target="Z_HHgX4n72WDITorGtu6-8">
          <mxGeometry relative="1" as="geometry" />
        </mxCell>
        <mxCell id="Z_HHgX4n72WDITorGtu6-7" value="yes, return token&lt;br&gt;to validate 2fa" style="rounded=0;whiteSpace=wrap;html=1;" vertex="1" parent="1">
          <mxGeometry x="150" y="130" width="120" height="60" as="geometry" />
        </mxCell>
        <mxCell id="Z_HHgX4n72WDITorGtu6-11" style="edgeStyle=orthogonalEdgeStyle;rounded=0;orthogonalLoop=1;jettySize=auto;html=1;entryX=0;entryY=0.5;entryDx=0;entryDy=0;" edge="1" parent="1" source="Z_HHgX4n72WDITorGtu6-8" target="Z_HHgX4n72WDITorGtu6-6">
          <mxGeometry relative="1" as="geometry" />
        </mxCell>
        <mxCell id="Z_HHgX4n72WDITorGtu6-8" value="validate 2fa and return token to reset password" style="rounded=0;whiteSpace=wrap;html=1;" vertex="1" parent="1">
          <mxGeometry x="150" y="420" width="120" height="60" as="geometry" />
        </mxCell>
        <mxCell id="Z_HHgX4n72WDITorGtu6-17" style="edgeStyle=orthogonalEdgeStyle;rounded=0;orthogonalLoop=1;jettySize=auto;html=1;" edge="1" parent="1" source="Z_HHgX4n72WDITorGtu6-15" target="Z_HHgX4n72WDITorGtu6-16">
          <mxGeometry relative="1" as="geometry" />
        </mxCell>
        <mxCell id="Z_HHgX4n72WDITorGtu6-15" value="password reset&lt;br&gt;called with token" style="rounded=0;whiteSpace=wrap;html=1;" vertex="1" parent="1">
          <mxGeometry x="365" y="560" width="120" height="60" as="geometry" />
        </mxCell>
        <mxCell id="Z_HHgX4n72WDITorGtu6-16" value="password is resetted" style="rounded=0;whiteSpace=wrap;html=1;" vertex="1" parent="1">
          <mxGeometry x="365" y="700" width="120" height="60" as="geometry" />
        </mxCell>
      </root>
    </mxGraphModel>
  </diagram>
</mxfile>
